_________________________  Visit us at _________________________
  
http://p2pdl.com  ____________________________  http://p2pdl.com

 
http://ultraimg.com/images/I8Zn.jpg


The Wicked 2013 BRRip 720p x264 AAC - PRiSTiNE

Genre: Fantasy | Horror | Thriller
Plot: A Group of teenagers test the legend of an 
immortal witch and get more than they bargained for.
Stars: Devon Werkheiser, Diana Hopper, Nicole Forester
Rated: PG 13

Info: 
http://www.imdb.com/title/tt1986994/

Trailer:


General
Complete name                  : The Wicked 2013 BRRip 720p x264 AAC - PRiSTiNE.mp4
Format                         : MPEG-4
Format profile                 : Base Media
File size                      : 602 MiB
Duration                       : 1h 45mn
Overall bit rate mode          : Variable
Overall bit rate               : 801 Kbps

Video
Format                         : AVC
Format/Info                    : Advanced Video Codec
Format profile                 : High 10@L4.1
Bit rate                       : 719 Kbps
Width                          : 1 280 pixels
Height                         : 720 pixels
Display aspect ratio           : 16:9
Frame rate mode                : Constant
Frame rate                     : 23.976 fps
Bit depth                      : 10 bits
Stream size                    : 539 MiB (90%)
Writing library                : x264 core 130 r2273 b3065e6

Audio
Format                         : AAC
Format/Info                    : Advanced Audio Codec
Bit rate mode                  : Variable
Bit rate                       : 79.5 Kbps
Channel(s)                     : 2 channels
Channel positions              : Front: L R
Sampling rate                  : 48.0 KHz / 24.0 KHz
Stream size                    : 59.8 MiB (10%)
Language                       : English

Subtitle                       : Yes (English)
Source                         : BluRay 720p DTS x264-LEGi0N (Thanks)

Screens:
 
http://www.ultraimg.com/images/zgCm.jpg 
http://www.ultraimg.com/images/h2KtA.jpg 
http://www.ultraimg.com/images/lmxFK.jpg 
http://www.ultraimg.com/images/uWTy.jpg 
http://www.ultraimg.com/images/g0PS.jpg 
http://www.ultraimg.com/images/eADvx.jpg

----------------------------------------------------------------------------------------------------


Encoded using revolutionary 10bit encoding, which enables us to provide you more crispier 
and sharper images at small sizes, just make sure you follow our instructions without a fault.
Recommend to you to use latest version of VLC player. Install K-Lite Codec Pack or shark007 codecs
in case of any kind of problem in playback (For non-VLC Media Player users). Alternatively, install
Core AVC codecs, the fastest decoder that there is coupled with Community Center Codec Pack and play
on Windows Media Player Classic. Check sample to be sure.
Enjoy!

Encoder Notes:Looking For Early Access To Anything You Can Provide DVDScr, R5, DVDR, BluRay, Direct
Audio, Music Releases and Seedboxes. We require dedicated servers, so as to do more 
and fast releases of movies.
If You Got anything to offer please contact us at "prg@hush.com".

Face book Fan Page:   
http://www.fb.me/p2pdl